<?xml version="1.0" encoding="UTF-8"?>
<svg id="katman_2" data-name="katman 2" xmlns="http://www.w3.org/2000/svg" viewBox="0 0 208.95 85.27">
  <g id="Katman_1-2" data-name="Katman 1">
    <g>
      <path d="m0,58.44c0-14.79,12.04-26.83,26.83-26.83h26.83v26.83c0,14.79-12.04,26.83-26.83,26.83S0,73.22,0,58.44h0Zm7.1,0c0,10.87,8.86,19.73,19.73,19.73s19.73-8.86,19.73-19.73v-19.73h-19.73c-10.87,0-19.73,8.86-19.73,19.73Z" fill="#fff" fill-rule="evenodd"/>
      <path d="m85.27,15.8h0c0,8.7-7.1,15.8-15.8,15.8h-15.8v-15.8c0-8.7,7.1-15.8,15.8-15.8h0c8.7,0,15.8,7.1,15.8,15.8Z" fill="#98d4e4" fill-rule="evenodd"/>
      <path d="m32.75,17.6h0c0,3.8,3.1,6.9,6.9,6.9h6.9v-6.9c0-3.8-3.1-6.9-6.9-6.9h0c-3.8,0-6.9,3.1-6.9,6.9Z" fill="#262e32" fill-rule="evenodd"/>
    </g>
    <g>
      <path d="m69.09,75.99c-1.68,0-2.59-.91-2.59-2.59v-25.35c0-1.43.58-2.44,2.02-2.83,2.73-.73,7.3-1.12,9.87-1.12,9.65,0,11.58,5.5,11.58,11.86,0,8.18-2.69,11.66-8.72,11.66-2.03,0-4.36-.24-6.24-.83-.53-.16-.72.08-.59.76.25,1.14.36,2.03.32,3.28l-.03,2.56c-.03,1.71-.91,2.59-2.62,2.59h-3Zm9.14-14.3c2.52,0,3.33-.89,3.33-5.7s-.84-6.04-3.21-6.17c-.78-.04-1.9.05-2.68.14-.64.1-.99.42-.99,1v9.53c-.01.56.22.94.76,1,.93.16,1.87.19,2.79.19h0Z" fill="#fff"/>
      <path d="m93.79,38.29c0-2.36,1.7-3.92,4.26-3.92s4.25,1.57,4.25,3.92-1.7,3.93-4.25,3.93-4.26-1.57-4.26-3.93Zm2.73,28.81c-1.68,0-2.59-.91-2.59-2.59v-17.18c0-1.68.91-2.59,2.59-2.59h2.96c1.68,0,2.59.91,2.59,2.59v17.18c0,1.68-.91,2.59-2.59,2.59h-2.96,0Z" fill="#fff"/>
      <path d="m106.85,64.51v-26.32c0-1.68.91-2.59,2.59-2.59h3c1.68,0,2.59.91,2.59,2.59v9.91c.01,1.11-.07,2.23-.2,3.35-.08.52.11.88.56.88h.41c.43,0,.62-.17.88-.57l3.43-5.29c.75-1.2,1.69-1.74,3.12-1.74h3.2c2.14,0,2.85,1.37,1.67,3.12l-3.08,4.4c-.5.87-1.16,1.59-1.73,2.12-.42.37-.39.76.03,1.14.57.48,1.27,1.28,1.7,2.05l4.07,6.41c1.1,1.79.35,3.11-1.73,3.11h-3.34c-1.43,0-2.39-.54-3.05-1.81l-4.32-7.59c-.25-.38-.48-.58-.88-.58h-.42c-.43,0-.59.33-.51.92.1.83.18,1.68.18,2.39v4.08c0,1.68-.91,2.59-2.59,2.59h-3c-1.68,0-2.59-.91-2.59-2.59Z" fill="#fff"/>
      <path d="m139.46,67.68c-4.15,0-7.5-2.18-7.5-6.38v-2.25c0-3.58,2.7-5.73,7.14-5.73h6.86c.43,0,.54-.21.54-.57v-.55c-.04-1.56-.68-1.96-3.07-1.96-1.86,0-4.39.02-7.35.13-1.5.06-2.51-.72-2.77-2.56-.24-1.67.61-2.83,2.29-3.05,3.28-.42,7.16-.64,9.76-.64,6.06,0,9.36,2.04,9.36,8.7v11.66c0,1.55-1.07,2.62-2.62,2.62h-1.91c-1,0-1.81-.36-2.16-1.24l-.16-.3c-.13-.35-.34-.42-.59-.21-1.59,1.28-4.1,2.33-7.81,2.33h0Zm6.46-6.37c.4-.11.6-.41.6-.83v-2.19c0-.46-.21-.67-.67-.67h-3.99c-1.35.02-1.91.71-1.91,1.73v.77c0,1.16.71,1.8,2.2,1.8,1.16,0,2.39-.05,3.77-.61Z" fill="#fff"/>
      <path d="m170.96,67.64c-2.57,0-7.15-.39-9.88-1.12-1.44-.38-2.02-1.4-2.02-2.83v-25.51c0-1.68.91-2.59,2.59-2.59h3c1.71,0,2.59.88,2.62,2.59l.03,2.56c.03,1.25-.08,2.29-.32,3.44-.12.69.06.92.59.76,1.88-.59,4.21-.83,6.24-.83,6.03,0,8.72,3.48,8.72,11.66,0,6.36-1.93,11.86-11.58,11.86h0Zm-.04-5.71c2.37-.12,3.21-1.27,3.21-6.17s-.81-5.7-3.33-5.7c-.93,0-1.87.04-2.79.19-.54.06-.77.43-.77.99v9.53c.01.58.36.9,1,1,.78.1,1.9.19,2.68.14h0Z" fill="#fff"/>
      <path d="m186.22,61.48v-14.15c0-1.68.91-2.59,2.59-2.59h3c1.68,0,2.59.91,2.59,2.59v11.57c0,1.46.52,1.95,1.89,1.95,1.14,0,2.19-.14,3.71-.64.5-.07.73-.38.73-.86v-12.03c0-1.68.91-2.59,2.59-2.59h3.04c1.68,0,2.59.91,2.59,2.59v17.18c0,1.68-.91,2.59-2.59,2.59h-1.66c-1.28,0-2.08-.37-2.5-1.17l-.08-.18c-.24-.4-.52-.5-.97-.23-2.72,1.38-5.68,2-8.45,2-4.26,0-6.47-2.08-6.47-6.04Z" fill="#fff"/>
    </g>
  </g>
</svg>