<svg width="52" height="56" viewBox="0 0 52 56" fill="none" xmlns="http://www.w3.org/2000/svg">
    <path d="M14.669 0C11.754 0 9.38 2.345 9.38 5.227s2.373 5.226 5.288 5.226 5.288-2.344 5.288-5.226S17.584 0 14.669 0zm0 1.493c2.082 0 3.777 1.675 3.777 3.734 0 2.058-1.695 3.733-3.777 3.733-2.083 0-3.777-1.675-3.777-3.733 0-2.059 1.694-3.734 3.777-3.734zm-2.267 10.454c-3.46 0-6.465 2.317-7.303 5.636a.264.264 0 0 0-.006.024L.332 39.416a.745.745 0 0 0 .739.904h5.251l-.717 14.897a.744.744 0 0 0 .207.551.762.762 0 0 0 .547.232h4.533a.75.75 0 0 0 .75-.675L13.09 40.32h3.846a.756.756 0 0 0 .595-.287.74.74 0 0 0 .138-.64l-2.787-11.02h10.364c1.666 0 3.021-1.34 3.021-2.986 0-1.648-1.355-2.987-3.021-2.987h-6.8c-.019-4.223-.346-10.453-6.043-10.453zm0 1.493c3.792 0 4.533 3.56 4.533 9.707a.75.75 0 0 0 .756.746h7.554c.833 0 1.51.67 1.51 1.494 0 .823-.677 1.493-1.51 1.493H13.913c-.026 0-.05.015-.076.018a2.636 2.636 0 0 1-1.49-1.446l.056-4.914a.376.376 0 0 0-.374-.378h-.004a.376.376 0 0 0-.378.369l-.056 4.988c0 .046.007.091.024.134.26.688.743 1.252 1.345 1.636l.373 1.124 2.634 10.416h-3.565a.734.734 0 0 0-.213.04.378.378 0 0 0-.164-.04H2.006l4.561-20.894c.675-2.646 3.073-4.493 5.835-4.493zm-.377 4.48a.376.376 0 0 0-.378.373v.747c0 .206.17.373.378.373a.376.376 0 0 0 .377-.373v-.747a.376.376 0 0 0-.377-.373zm26.062 8.213c-1.666 0-3.022 1.34-3.022 2.987v6.72H32.8V33.6c0-2.059-1.694-3.733-3.777-3.733h-5.288c-1.667 0-3.022 1.34-3.022 2.986 0 1.648 1.355 2.987 3.022 2.987h3.022v1.493c0 2.471 2.032 4.48 4.532 4.48h5.288c2.5 0 4.533-2.009 4.533-4.48V29.12c0-1.647-1.355-2.987-3.022-2.987zm0 1.494c.833 0 1.511.67 1.511 1.493v8.213c0 1.648-1.355 2.987-3.022 2.987H32.8v-2.987h2.266c.834 0 1.511-.67 1.511-1.493v-6.72c0-.824.678-1.493 1.511-1.493zM23.734 31.36h5.288c1.25 0 2.266 1.005 2.266 2.24v.747h-7.555c-.832 0-1.51-.67-1.51-1.494 0-.823.678-1.493 1.51-1.493zm23.04 2.24c-2.29 0-4.154 1.843-4.154 4.107 0 2.264 1.864 4.106 4.155 4.106 2.29 0 4.154-1.842 4.154-4.106S49.066 33.6 46.775 33.6zm-18.508 1.493h3.022v.747c0 .55.306 1.027.756 1.286v3.194h-.756c-1.666 0-3.021-1.34-3.021-2.987v-2.24zm18.509 0c1.458 0 2.644 1.173 2.644 2.614 0 1.44-1.186 2.613-2.644 2.613-1.458 0-2.644-1.172-2.644-2.613s1.186-2.614 2.644-2.614zm-38.911 4.48h3.78l-1.438 14.934H7.15l.717-14.897c.001-.013-.004-.025-.004-.037zm21.158 3.734c-1.25 0-2.266 1.005-2.266 2.24 0 1.235 1.017 2.24 2.266 2.24h20.397c1.25 0 2.266-1.005 2.266-2.24 0-1.235-1.017-2.24-2.266-2.24H29.022zm0 1.493h20.397c.417 0 .755.335.755.747a.751.751 0 0 1-.755.746H29.022a.751.751 0 0 1-.755-.746c0-.412.338-.747.755-.747z" fill="#ACACAC"/>
</svg>
