<svg width="26" height="28" viewBox="0 0 26 28" fill="none" xmlns="http://www.w3.org/2000/svg">
<path d="M10.0036 1.74964C10.2127 1.2327 10.5715 0.789985 11.0339 0.47826C11.4963 0.166536 12.0412 0 12.5989 0C13.1565 0 13.7015 0.166536 14.1639 0.47826C14.6263 0.789985 14.9851 1.2327 15.1942 1.74964C17.2643 2.31894 19.0902 3.55203 20.3915 5.25954C21.6929 6.96705 22.3978 9.05456 22.3979 11.2015V17.7766L24.9624 21.6234C25.103 21.8342 25.1838 22.0792 25.1961 22.3324C25.2084 22.5855 25.1518 22.8372 25.0322 23.0607C24.9126 23.2841 24.7347 23.4709 24.5173 23.6012C24.2998 23.7314 24.0511 23.8002 23.7977 23.8001H17.4494C17.2808 24.9663 16.6977 26.0328 15.8069 26.8041C14.9161 27.5755 13.7772 28 12.5989 28C11.4205 28 10.2817 27.5755 9.39084 26.8041C8.50003 26.0328 7.91694 24.9663 7.7484 23.8001H1.40006C1.14663 23.8002 0.89794 23.7314 0.680526 23.6012C0.463112 23.4709 0.28513 23.2841 0.165569 23.0607C0.0460076 22.8372 -0.0106469 22.5855 0.00164882 22.3324C0.0139446 22.0792 0.0947294 21.8342 0.235385 21.6234L2.79992 17.7766V11.2015C2.79992 6.68832 5.85159 2.88632 10.0036 1.74964ZM10.6195 23.8001C10.7641 24.2098 11.0321 24.5645 11.3868 24.8155C11.7414 25.0664 12.1652 25.2011 12.5996 25.2011C13.034 25.2011 13.4577 25.0664 13.8124 24.8155C14.167 24.5645 14.4351 24.2098 14.5797 23.8001H10.6181H10.6195ZM12.5989 4.20219C10.7426 4.20219 8.96228 4.93961 7.64966 6.25222C6.33704 7.56484 5.59962 9.34513 5.59962 11.2015V18.2007C5.59968 18.4772 5.51785 18.7476 5.36445 18.9776L4.01639 21.0004H21.18L19.8319 18.9776C19.679 18.7474 19.5977 18.4771 19.5982 18.2007V11.2015C19.5982 9.34513 18.8607 7.56484 17.5481 6.25222C16.2355 4.93961 14.4552 4.20219 12.5989 4.20219Z" fill="#B6B8C0"/>
</svg>
