<svg width="64" height="50" viewBox="0 0 64 50" fill="none" xmlns="http://www.w3.org/2000/svg">
    <path d="M20.416.916A3.125 3.125 0 0 1 22.626 0h18.75c.828 0 1.623.33 2.208.916L48.92 6.25H57a6.25 6.25 0 0 1 6.25 6.25v31.25A6.25 6.25 0 0 1 57 50H7a6.25 6.25 0 0 1-6.25-6.25V12.5A6.25 6.25 0 0 1 7 6.25h8.081L20.416.916zm3.503 5.334-5.335 5.334a3.125 3.125 0 0 1-2.209.916H7v31.25h50V12.5h-9.375c-.829 0-1.623-.33-2.21-.916L40.082 6.25H23.92zM32 20.313a6.25 6.25 0 1 0 0 12.5 6.25 6.25 0 0 0 0-12.5zm-12.5 6.25a12.5 12.5 0 1 1 25 0 12.5 12.5 0 0 1-25 0z" fill="#ACACAC"/>
</svg>
