<svg width="49" height="56" viewBox="0 0 49 56" fill="none" xmlns="http://www.w3.org/2000/svg">
    <path d="M11.758 0C8.716 0 6.234 2.483 6.234 5.526c0 3.044 2.482 5.527 5.524 5.527 3.041 0 5.523-2.483 5.523-5.527C17.281 2.483 14.799 0 11.758 0zm25.776 0c-3.042 0-5.524 2.483-5.524 5.526 0 3.044 2.482 5.527 5.524 5.527 3.041 0 5.523-2.483 5.523-5.527C43.057 2.483 40.575 0 37.534 0zM11.758 1.474a4.04 4.04 0 0 1 4.05 4.052 4.04 4.04 0 0 1-4.05 4.053 4.04 4.04 0 0 1-4.05-4.053 4.04 4.04 0 0 1 4.05-4.052zm25.776 0a4.04 4.04 0 0 1 4.05 4.052 4.04 4.04 0 0 1-4.05 4.053 4.04 4.04 0 0 1-4.05-4.053 4.04 4.04 0 0 1 4.05-4.052zM8.075 12.526c-4.264 0-7.733 3.47-7.733 7.737v10.684A5.165 5.165 0 0 0 4.81 36.06l1.427 19.259a.736.736 0 0 0 .734.682h9.573a.736.736 0 0 0 .734-.682l.92-12.426a3.793 3.793 0 0 0 2.065 1.176l.702 11.241A.737.737 0 0 0 21.7 56h6.628a.737.737 0 0 0 .735-.69l.702-11.242a3.76 3.76 0 0 0 2.347-1.546l.665 12.78a.738.738 0 0 0 .735.698h8.043a.736.736 0 0 0 .735-.698l.73-14.039h2.983a.738.738 0 0 0 .728-.845l-.816-5.514a5.12 5.12 0 0 0 2.978-5.446c-.596-4.048-1.039-6.936-1.32-8.582-.83-4.838-5.053-8.35-10.04-8.35-4.9 0-9.057 3.396-9.985 8.106a4.744 4.744 0 0 0-4.375-.367v-.002c0-4.266-3.469-7.737-7.733-7.737H8.075zm0 1.474h7.365c3.452 0 6.26 2.81 6.26 6.263v.976a4.774 4.774 0 0 0-1.473 3.445c0 1.351.567 2.573 1.473 3.445v.628a7.777 7.777 0 0 0-3.683 3.707V21a.37.37 0 0 0-.373-.374.37.37 0 0 0-.363.374v14.353L15.86 54.526h-3.734v-18.79a.369.369 0 1 0-.737 0v18.79H7.655l-1.42-19.173V21a.368.368 0 1 0-.737 0v13.632a3.687 3.687 0 0 1-3.683-3.685V20.263A6.269 6.269 0 0 1 8.075 14zm29.459 0c4.267 0 7.878 2.997 8.585 7.125.28 1.634.724 4.51 1.316 8.547a3.655 3.655 0 0 1-2.445 4.005l-1.886-12.732a.369.369 0 1 0-.729.11l1.995 13.474v.005l.4 2.697.38 2.558H32.747v-4.052c0-1.732-.58-3.327-1.545-4.618l1.49-10.066a.367.367 0 0 0-.31-.417.371.371 0 0 0-.418.31L30.57 30.37a7.756 7.756 0 0 0-2.733-1.828 4.785 4.785 0 0 0 1.965-3.857c0-1.077-.364-2.07-.968-2.87.036-.222.081-.504.113-.69.709-4.128 4.32-7.124 8.588-7.124zm-12.52 7.368a3.304 3.304 0 0 1 3.314 3.316A3.304 3.304 0 0 1 25.014 28a3.304 3.304 0 0 1-3.314-3.316 3.304 3.304 0 0 1 3.314-3.316zm0 8.106a6.25 6.25 0 0 1 6.26 6.263v4.79a2.2 2.2 0 0 1-2.21 2.21V35a.366.366 0 0 0-.374-.374.37.37 0 0 0-.362.374v8.45l-.692 11.076h-5.244L21.7 43.451V35a.37.37 0 0 0-.374-.374.37.37 0 0 0-.363.374v7.737a2.2 2.2 0 0 1-2.21-2.21v-4.79a6.25 6.25 0 0 1 6.26-6.263zm8.508 11.79h3.643v13.262h-2.953l-.69-13.263zm4.38 0h3.643l-.69 13.262h-2.953V41.263z" fill="#F45270"/>
</svg>
