<svg width="20" height="20" viewBox="0 0 20 20" fill="none" xmlns="http://www.w3.org/2000/svg">
    <path d="M10 2.003a1 1 0 0 0-1 1c0 1.691-2.044 2.54-3.241 1.343a1 1 0 1 0-1.413 1.413c1.196 1.197.35 3.242-1.343 3.242a1 1 0 1 0 0 2c1.691 0 2.54 2.044 1.343 3.241a1 1 0 0 0 1.413 1.413c1.197-1.196 3.242-.35 3.242 1.343a1 1 0 0 0 2 0c0-1.691 2.044-2.54 3.241-1.343a.999.999 0 1 0 1.413-1.413C14.46 13.045 15.306 11 16.998 11a1 1 0 0 0 0-2c-1.691 0-2.54-2.044-1.343-3.241a1 1 0 0 0-1.413-1.413C13.045 5.542 11 4.696 11 3.003a1 1 0 0 0-1-1zm-2.99.777a2.999 2.999 0 0 1 5.981 0 2.999 2.999 0 0 1 4.229 4.23 2.999 2.999 0 0 1 0 5.981 2.999 2.999 0 0 1-4.229 4.229 2.999 2.999 0 0 1-5.981 0 2.999 2.999 0 0 1-4.23-4.229 2.999 2.999 0 0 1 0-5.981 2.999 2.999 0 0 1 4.23-4.23z" fill="#F45270"/>
    <path d="M10 8.001A2 2 0 1 0 10 12 2 2 0 0 0 10 8zm-2.827-.828a3.999 3.999 0 1 1 5.753 5.556 3.999 3.999 0 0 1-5.753-5.556z" fill="#F45270"/>
</svg>
