<svg width="18" height="18" viewBox="0 0 18 18" fill="none" xmlns="http://www.w3.org/2000/svg">
    <path d="M13.952.121A.9.9 0 0 1 14.4.9v3.6a3.591 3.591 0 0 1 2.683 1.2A3.59 3.59 0 0 1 18 8.1a3.59 3.59 0 0 1-.917 2.4 3.594 3.594 0 0 1-2.683 1.2v3.6a.9.9 0 0 1-1.346.781L7.2 12.737V17.1a.9.9 0 0 1-.9.9H2.7a.9.9 0 0 1-.9-.9v-4.5A1.8 1.8 0 0 1 0 10.8V5.4a1.8 1.8 0 0 1 1.8-1.8h5.16L13.055.119a.9.9 0 0 1 .898.002zM7.2 10.8a.9.9 0 0 1 .446.119l4.954 2.83V2.451L7.646 5.28A.9.9 0 0 1 7.2 5.4H1.8v5.4h5.4zm-3.6 1.8v3.6h1.8v-3.6H3.6zm10.8-2.7c.533 0 1.01-.23 1.342-.6a1.79 1.79 0 0 0 .458-1.2 1.79 1.79 0 0 0-.458-1.2 1.794 1.794 0 0 0-1.342-.6v3.6z" fill="#F45270"/>
</svg>
