<svg width="23" height="21" viewBox="0 0 23 21" fill="none" xmlns="http://www.w3.org/2000/svg">
    <path d="M16.751.304c-1.92 0-3.763.894-4.966 2.307C10.583 1.198 8.74.304 6.82.304 3.421.304.75 2.974.75 6.374c0 4.171 3.752 7.57 9.435 12.735l1.6 1.445 1.6-1.456c5.684-5.154 9.436-8.553 9.436-12.724 0-3.4-2.67-6.07-6.07-6.07zm-4.855 17.16-.11.11-.11-.11c-5.254-4.756-8.719-7.9-8.719-11.09 0-2.207 1.655-3.863 3.862-3.863 1.7 0 3.355 1.093 3.94 2.605h2.064c.574-1.512 2.229-2.605 3.928-2.605 2.207 0 3.863 1.656 3.863 3.863 0 3.19-3.465 6.334-8.718 11.09z" fill="#fff"/>
</svg>
