<svg width="23" height="20" viewBox="0 0 23 20" fill="none" xmlns="http://www.w3.org/2000/svg">
    <path d="M0 2.222A2.222 2.222 0 0 1 2.222 0H20a2.222 2.222 0 0 1 2.223 2.222v12.223A2.222 2.222 0 0 1 20 16.667h-5.095l-3.008 3.008a1.111 1.111 0 0 1-1.571 0l-3.008-3.008H2.222A2.222 2.222 0 0 1 0 14.445V2.222zm20 0H2.222v12.223h5.556c.295 0 .577.117.785.325l2.548 2.548 2.548-2.548c.208-.208.491-.325.786-.325H20V2.222zM4.444 6.112A1.111 1.111 0 0 1 5.556 5h11.11a1.11 1.11 0 1 1 0 2.222H5.557a1.111 1.111 0 0 1-1.112-1.11zm0 4.444a1.111 1.111 0 0 1 1.112-1.111h6.666a1.11 1.11 0 1 1 0 2.222H5.556a1.111 1.111 0 0 1-1.112-1.111z" fill="#F45270"/>
</svg>
