<svg width="30" height="28" viewBox="0 0 30 28" fill="none" xmlns="http://www.w3.org/2000/svg">
<path d="M14.6607 0C14.9329 0.000145355 15.1997 0.0760621 15.4311 0.219248C15.6626 0.362434 15.8497 0.567234 15.9713 0.810713L19.7537 8.37249L28.0661 9.58049C28.3368 9.61981 28.5912 9.73413 28.8004 9.9105C29.0096 10.0869 29.1652 10.3183 29.2497 10.5785C29.3342 10.8387 29.3442 11.1174 29.2786 11.3831C29.2129 11.6487 29.0742 11.8906 28.8782 12.0815L22.8279 17.9808L24.1884 26.2991C24.2321 26.5683 24.1998 26.8445 24.0952 27.0964C23.9905 27.3483 23.8176 27.5661 23.596 27.7251C23.3743 27.8841 23.1127 27.9782 22.8405 27.9966C22.5684 28.0151 22.2964 27.9573 22.0553 27.8296L14.6607 23.9065L7.26606 27.8296C7.02496 27.9573 6.75304 28.0151 6.48086 27.9966C6.20868 27.9782 5.94706 27.8841 5.72541 27.7251C5.50376 27.5661 5.33089 27.3483 5.22623 27.0964C5.12157 26.8445 5.08928 26.5683 5.13299 26.2991L6.49346 17.9808L0.443165 12.0815C0.247153 11.8906 0.108477 11.6487 0.0428259 11.3831C-0.0228251 11.1174 -0.0128312 10.8387 0.0716774 10.5785C0.156186 10.3183 0.311836 10.0869 0.521019 9.9105C0.730202 9.73413 0.98457 9.61981 1.25534 9.58049L9.56772 8.37249L13.3501 0.810713C13.4717 0.567234 13.6588 0.362434 13.8903 0.219248C14.1217 0.0760621 14.3885 0.000145355 14.6607 0ZM14.6607 4.74407L11.8489 10.3677C11.7433 10.5792 11.5882 10.7621 11.3968 10.9007C11.2053 11.0393 10.9832 11.1296 10.7493 11.1638L4.61548 12.0551L9.08686 16.4136C9.25584 16.5783 9.38259 16.7813 9.45635 17.0053C9.53011 17.2294 9.5487 17.468 9.51055 17.7008L8.50339 23.8537L13.9731 20.951C14.1849 20.8386 14.421 20.7798 14.6607 20.7798C14.9004 20.7798 15.1365 20.8386 15.3483 20.951L20.818 23.8537L19.8109 17.7008C19.7729 17.4682 19.7917 17.2299 19.8654 17.0061C19.9392 16.7823 20.0658 16.5796 20.2345 16.4151L24.7059 12.0551L18.5735 11.1638C18.3397 11.1296 18.1175 11.0393 17.9261 10.9007C17.7346 10.7621 17.5795 10.5792 17.474 10.3677L14.6607 4.74407Z" fill="#B6B8C0"/>
</svg>
