<svg width="24" height="24" viewBox="0 0 24 24" fill="none" xmlns="http://www.w3.org/2000/svg">
    <path d="M12 .126a1.191 1.191 0 0 1 1.073.67l3.096 6.25 6.803.999a1.211 1.211 0 0 1 .992 1.49c-.053.22-.166.42-.327.577l-4.952 4.876 1.114 6.876a1.223 1.223 0 0 1-.485 1.179 1.193 1.193 0 0 1-1.261.086L12 19.887l-6.053 3.242a1.19 1.19 0 0 1-1.26-.086 1.21 1.21 0 0 1-.486-1.179l1.114-6.876-4.952-4.876A1.215 1.215 0 0 1 .059 8.87a1.195 1.195 0 0 1 .969-.825l6.803-.999 3.096-6.25A1.191 1.191 0 0 1 12 .126z" fill="#fff"/>
</svg>
