<svg width="20" height="20" viewBox="0 0 20 20" fill="none" xmlns="http://www.w3.org/2000/svg">
    <path d="M8 2a4 4 0 1 0 0 8 4 4 0 0 0 0-8zM2 6a6 6 0 1 1 12 0A6 6 0 0 1 2 6zm12.828-4.243a1 1 0 0 1 1.415 0 6 6 0 0 1 0 8.486 1 1 0 0 1-1.415-1.415 4 4 0 0 0 0-5.656 1 1 0 0 1 0-1.415zm.702 13a1 1 0 0 1 1.212-.727c1.328.332 2.169 1.18 2.652 2.148.468.935.606 1.98.606 2.822a1 1 0 0 1-2 0c0-.657-.112-1.363-.394-1.928-.267-.533-.677-.934-1.349-1.102a1 1 0 0 1-.727-1.213zM4.5 16C3.24 16 2 17.213 2 19a1 1 0 1 1-2 0c0-2.632 1.893-5 4.5-5h7c2.607 0 4.5 2.368 4.5 5a1 1 0 0 1-2 0c0-1.787-1.24-3-2.5-3h-7z" fill="#F45270"/>
</svg>
